PathFileType	4	(X/Y/Z)	F:\MotionCapture\20160217\3\Generated_files\EMG_Fprce_test05-Dynamic.trc
DataRate	CameraRate	NumFrames	NumMarkers	Units	OrigDataRate	OrigDataStartFrame	OrigNumFrames
120.00	120.00	       7	39	mm	120.00	1	       188
Frame#	Time	Top.Head			Front.Head			Rear.Head			R.Shoulder			R.Offset			R.Elbow			R.Wrist			L.Shoulder			L.Elbow			L.Wrist			R.ASIS			L.ASIS			V.Sacral			R.Thigh			R.Knee			R.Shank			R.Ankle			R.Heel			R.Toe			L.Thigh			L.Knee			L.Shank			L.Ankle			L.Heel			L.Toe			R1			R2			R3			R4			R5			R6			R7			L1			L2			L3			L4			L5			L6			L7			V_Mid_ASIS			V_Pelvis_Origin			V_R.Hip_JC			V_L.Hip_JC			V_R.Knee_JC			V_L.Knee_JC			V_R.Ankle_JC			V_L.Ankle_JC			V_Mid_Hip			V_Mid_Shoulder			V_R.Hand			V_L.Hand			V_R.Toe_Offset_Static			V_L.Toe_Offset_Static			V_R.Toe_Offset			V_L.Toe_Offset			
		X1	Y1	Z1	X2	Y2	Z2	X3	Y3	Z3	X4	Y4	Z4	X5	Y5	Z5	X6	Y6	Z6	X7	Y7	Z7	X8	Y8	Z8	X9	Y9	Z9	X10	Y10	Z10	X11	Y11	Z11	X12	Y12	Z12	X13	Y13	Z13	X14	Y14	Z14	X15	Y15	Z15	X16	Y16	Z16	X17	Y17	Z17	X18	Y18	Z18	X19	Y19	Z19	X20	Y20	Z20	X21	Y21	Z21	X22	Y22	Z22	X23	Y23	Z23	X24	Y24	Z24	X25	Y25	Z25	X26	Y26	Z26	X27	Y27	Z27	X28	Y28	Z28	X29	Y29	Z29	X30	Y30	Z30	X31	Y31	Z31	X32	Y32	Z32	X33	Y33	Z33	X34	Y34	Z34	X35	Y35	Z35	X36	Y36	Z36	X37	Y37	Z37	X38	Y38	Z38	X39	Y39	Z39	

1	0.000	2386.96606	54.69288	1723.45251	2268.81274	57.56648	1648.35730	2489.88721	42.53778	1647.49304	2444.49414	240.86113	1412.00549	2555.34814	-39.48479	1280.44800	2539.25439	341.09601	1107.88623	2481.93262	374.07889	853.78760	2381.27783	-165.16907	1418.75525	2382.15991	-268.30811	1094.98999	2267.26465	-245.41231	864.26202	2385.73950	179.94894	942.59723	2371.42529	-108.61553	928.36938	2601.94971	28.51914	952.84003	2254.88452	172.88672	613.30170	2301.04077	218.36868	489.44516	2352.35254	141.92778	259.05722	2458.23291	193.70041	112.75499	2515.54346	118.68990	91.98119	2325.89160	207.67946	69.56049	2387.94312	-42.61949	599.90125	2498.38672	-90.75003	452.63239	2518.75220	-7.46751	317.06522	2641.23975	-59.06455	65.78410	2705.63086	1.16290	48.96442	2504.85083	-62.71666	52.44216	2276.31055	203.03769	64.98905	2310.71826	175.21318	75.19049	2394.23486	119.92574	94.39039	2464.74658	101.41078	86.33314	2498.46533	170.11780	91.11730	2429.95630	213.45296	71.70491	2369.73853	232.90347	62.72248	2461.60693	-40.46421	53.16736	2491.63379	-25.05976	56.53143	2581.67725	26.36476	58.09253	2664.74023	32.00370	49.77792	2682.32935	-42.02824	49.66659	2606.09644	-70.50694	34.98231	2547.40967	-88.91696	47.61969	
2	0.008	2381.25586	55.30311	1722.96143	2263.18799	58.09193	1647.27661	2484.49121	42.53304	1646.78186	2438.99854	240.81313	1411.12793	2550.01880	-40.26043	1279.79602	2537.18335	339.91559	1107.69238	2485.95874	375.55231	853.65948	2375.51440	-165.54279	1418.09509	2373.17676	-268.86987	1094.72888	2251.88721	-242.92281	867.08057	2380.88647	179.61665	942.35876	2366.68823	-109.47523	927.00842	2597.30322	28.49075	952.36200	2247.54761	171.63649	615.33594	2292.68774	217.35376	490.90594	2338.91797	140.69008	259.17770	2441.28467	193.31259	110.74950	2499.72998	119.46275	89.94024	2308.17871	206.37930	70.16882	2386.20337	-43.63258	597.93109	2497.43237	-91.11375	452.47449	2518.28174	-7.92930	316.34494	2641.07275	-58.87593	65.60350	2705.58545	1.20740	49.08717	2504.83960	-62.64708	52.22156	2258.71167	201.75304	66.69598	2292.94824	173.98001	76.42327	2377.43701	119.49023	93.36057	2447.02393	100.71531	84.08354	2480.18750	168.65857	87.34757	2412.22388	212.34947	69.91126	2351.67407	233.17488	62.95424	2461.46265	-40.40015	52.82921	2491.53638	-25.07123	56.26982	2581.93140	26.67603	58.02030	2664.68188	31.91167	49.71553	2682.24316	-42.03640	49.61361	2606.14526	-70.53947	34.95657	2547.38159	-89.04652	47.50257																																																	3727.80249	-355.27347	1668.79370	
3	0.017	2375.71069	55.69595	1721.81140	2257.84375	58.00287	1646.26514	2478.81787	42.88446	1646.00574	2435.41528	240.36232	1410.18799	2544.65796	-40.92342	1279.13672	2536.94287	340.44336	1108.59583	2489.09009	375.94388	853.59894	2370.02344	-165.01260	1417.66736	2363.74487	-269.66370	1094.15295	2236.39111	-240.69746	869.43762	2376.23828	178.80515	941.68280	2362.92871	-109.83900	925.58606	2592.52075	28.33054	951.75122	2240.36011	170.69020	617.31061	2283.36719	216.72858	492.20697	2325.68433	139.90050	259.92520	2425.28906	193.90016	109.98774	2481.70825	118.63650	86.40129	2289.84180	205.46838	70.81523	2382.78735	-43.71355	597.62244	2496.32153	-91.13647	452.03436	2517.62329	-8.21064	316.04346	2640.93530	-58.91617	65.62728	2705.51514	1.24738	49.19221	2504.77661	-62.42886	51.87658	2240.21729	201.01122	68.16955	2274.90430	173.40947	77.29924	2359.12085	118.71077	93.50506	2429.84692	99.84431	82.60042	2464.37939	169.74991	87.30460	2393.90259	211.52213	68.36952	2333.49536	232.24591	62.82905	2461.51196	-40.25638	52.60021	2491.43921	-24.99011	56.07592	2581.88696	26.72487	57.90114	2664.64111	31.77008	49.71616	2682.19946	-42.03205	49.69906	2606.22461	-70.59453	34.95549	2547.38721	-89.21156	47.35271																																																	3720.02002	-354.24478	1667.75354	3300.94775	441.59717	798.91553	
4	0.025	2370.09204	55.77696	1720.71863	2251.92383	58.49575	1645.18738	2473.19702	42.98487	1645.04565	2430.11963	240.15103	1408.96912	2538.94336	-41.56796	1278.36096	2534.89966	339.56702	1109.26184	2492.31030	377.28452	853.28473	2363.85962	-165.00827	1416.91553	2353.74756	-269.46033	1093.59863	2221.10010	-238.26501	872.65790	2370.62500	178.15858	940.80878	2358.10889	-109.91288	924.65820	2587.63525	28.22220	951.05304	2233.50781	169.38199	618.65112	2274.16406	215.90686	493.15131	2311.48901	140.17467	259.75879	2407.31104	193.43245	107.90838	2463.74194	118.75013	83.35309	2271.22461	204.81026	71.37981	2379.81079	-43.59529	596.26965	2494.68604	-91.40247	451.28149	2516.55298	-8.43296	315.78119	2640.74097	-58.92394	65.47926	2705.41797	1.28506	49.34044	2504.67285	-62.73851	51.50270	2221.19556	200.54541	69.53577	2256.52490	172.95747	78.34511	2341.50293	118.36098	92.53709	2411.69507	99.97051	80.72805	2446.25757	169.65973	84.71163	2374.84790	211.37180	66.48363	2314.11133	231.25006	61.40814	2461.28296	-37.15368	52.61384	2491.26880	-24.80093	55.39429	2581.52393	26.36845	57.44036	2664.67798	32.16283	49.52194	2682.08447	-41.99520	49.65725	2606.27124	-70.75948	35.02155	2547.28223	-89.48933	47.13438																																																	2804.11694	63.89424	246.80835	3722.80591	-356.04099	1666.41553	1992.80188	133.36650	148.95921	
5	0.033	2363.87183	56.45206	1719.60168	2245.87378	59.40388	1643.62769	2467.21362	43.40821	1644.03833	2425.61597	240.26614	1408.35645	2533.23364	-42.01773	1277.51807	2533.41333	339.26498	1109.42358	2494.87329	377.85883	852.98279	2357.72485	-164.82559	1416.10266	2344.29443	-269.70483	1092.83118	2205.51855	-235.45180	875.54498	2366.21216	177.60971	940.31158	2353.19385	-110.48410	923.60962	2582.75049	28.03269	950.22845	2225.83130	168.43077	620.42999	2264.99829	215.86687	494.13837	2297.08984	139.71880	260.28922	2389.12891	193.26021	105.75478	2445.33716	118.74979	79.95793	2252.54883	204.51215	72.36171	2378.52612	-44.24188	594.10553	2493.61255	-91.80716	450.84778	2515.84570	-8.14806	315.58096	2640.66089	-58.83625	65.61336	2705.27808	1.30008	49.50551	2504.46191	-62.75897	51.13890	2202.31177	199.27689	71.63736	2238.09692	172.26299	79.40295	2322.14282	118.07410	92.02892	2391.96875	99.17706	76.96548	2427.54199	169.76059	81.87206	2355.82104	211.63766	65.22144	2295.40967	231.00906	61.53215	2460.97949	-37.29645	51.40866	2490.77100	-24.85207	54.52976	2581.02808	26.19306	56.74278	2664.54639	32.17898	49.46412	2681.97437	-41.93335	49.73426	2606.39575	-71.49091	35.17857	2547.17358	-89.98434	46.87576																																																	2803.59741	63.88690	246.31828	1693.51953	-220.16338	734.32965	
6	0.042	2357.78638	56.87565	1718.43872	2240.11768	59.30418	1642.78137	2461.11792	43.68340	1642.85767	2420.00659	240.32182	1407.53735	2527.54077	-42.60398	1276.48450	2531.58521	338.57321	1109.75696	2498.37988	379.07446	852.94196	2351.31958	-164.00516	1414.93384	2333.59766	-269.82861	1091.35730	2190.00781	-232.59250	878.62738	2360.71899	177.85936	939.49500	2348.68774	-110.80173	921.97583	2577.80762	28.15579	949.31042	2218.78882	167.05194	621.92853	2256.35620	214.83656	495.08078	2282.67871	139.35841	260.35083	2370.70313	193.59306	103.93692	2426.50757	119.34383	76.62763	2232.99268	204.10042	72.36131	2375.12939	-44.93923	593.23114	2491.65747	-91.57892	450.18784	2514.49927	-7.82771	315.05490	2640.60474	-58.84384	65.59776	2705.14917	1.38134	49.77501	2504.24585	-62.65171	50.77847	2183.25610	199.39317	73.34452	2219.08545	172.48766	80.74443	2304.85767	118.08269	90.87029	2373.88110	99.88839	74.89210	2408.79468	170.03029	79.07459	2336.52124	211.80234	63.81619	2275.97217	230.99606	61.38931	2460.64258	-36.68489	50.31747	2490.64551	-24.53530	53.72028	2580.68091	26.25516	56.41618	2664.05591	31.36580	49.01321	2681.87085	-41.87601	49.84510	2606.41626	-71.47871	35.18937	2547.03540	-90.17687	46.65949	
7	0.050	2351.91821	57.05086	1717.12158	2234.07275	59.63162	1641.27808	2455.05542	43.88222	1641.57690	2415.19287	240.26530	1405.92847	2521.47241	-43.21780	1275.45459	2529.47925	338.16626	1109.92676	2500.67505	379.97534	852.95142	2345.11182	-164.02943	1413.53882	2323.80225	-269.95786	1090.71936	2173.98706	-229.77745	882.45862	2355.46436	176.85231	938.50031	2343.35400	-111.01971	920.41309	2572.45728	28.01756	948.28369	2211.77246	166.06003	622.70667	2247.81104	214.20355	496.02444	2268.28101	138.91013	260.26755	2352.03247	193.83040	101.51006	2407.31030	119.91270	73.23993	2213.80151	204.47623	73.41597	2370.52441	-44.93721	592.06525	2489.89746	-91.25728	449.55112	2512.70044	-7.93600	314.49814	2640.50610	-58.81418	65.62958	2705.03760	1.55955	50.10144	2503.79980	-62.68133	50.11411	2163.92725	199.02817	75.28735	2200.09326	172.22754	81.77438	2285.96313	118.58685	90.39497	2354.89575	100.33810	73.57644	2389.48022	170.51935	76.77799	2316.69287	212.05475	62.27013	2256.26758	231.15767	62.27546	2460.36450	-38.37642	48.48877	2490.48438	-24.24986	52.99430	2580.66431	26.53710	56.11836	2663.87598	31.30497	48.78075	2681.66333	-41.77932	49.88766	2606.34155	-71.40540	35.12007	2546.84741	-90.36642	46.50431																																																	1682.27539	-219.86404	737.15186	
